grf
version=1
nRows=11
nColumns=46
inDegrees=yes
endheader
time	ground_force_1_vx	ground_force_1_vy	ground_force_1_vz	ground_force_1_px	ground_force_1_py	ground_force_1_pz	ground_moment_1_mx	ground_moment_1_my	ground_moment_1_mz	ground_force_2_vx	ground_force_2_vy	ground_force_2_vz	ground_force_2_px	ground_force_2_py	ground_force_2_pz	ground_moment_2_mx	ground_moment_2_my	ground_moment_2_mz	ground_force_3_vx	ground_force_3_vy	ground_force_3_vz	ground_force_3_px	ground_force_3_py	ground_force_3_pz	ground_moment_3_mx	ground_moment_3_my	ground_moment_3_mz	ground_force_4_vx	ground_force_4_vy	ground_force_4_vz	ground_force_4_px	ground_force_4_py	ground_force_4_pz	ground_moment_4_mx	ground_moment_4_my	ground_moment_4_mz	ground_force_5_vx	ground_force_5_vy	ground_force_5_vz	ground_force_5_px	ground_force_5_py	ground_force_5_pz	ground_moment_5_mx	ground_moment_5_my	ground_moment_5_mz
5.726000	0.000000	0.000000	0.000000	0.000000	0.000000	0.000000	0.000000	0.000000	0.000000	0.000000	0.000000	0.000000	0.000000	0.000000	0.000000	0.000000	0.000000	0.000000	0.000000	0.000000	0.000000	0.000000	0.000000	0.000000	0.000000	0.000000	0.000000	-2.237820	499.581421	-8.404893	0.202579	0.000000	-1.082124	-0.000000	4.439115	0.000000	-11.887215	483.558836	2.590790	0.219387	0.000000	-1.396062	-0.000000	-6.004136	-0.000000
5.726500	0.000000	0.000000	0.000000	0.000000	0.000000	0.000000	0.000000	0.000000	0.000000	0.000000	0.000000	0.000000	0.000000	0.000000	0.000000	0.000000	0.000000	0.000000	0.000000	0.000000	0.000000	0.000000	0.000000	0.000000	0.000000	0.000000	0.000000	-2.170577	499.511653	-8.402220	0.202588	0.000000	-1.082117	-0.000000	4.441413	0.000000	-11.888030	483.513863	2.600297	0.219423	0.000000	-1.396085	-0.000000	-6.006777	-0.000000
5.727000	0.000000	0.000000	0.000000	0.000000	0.000000	0.000000	0.000000	0.000000	0.000000	0.000000	0.000000	0.000000	0.000000	0.000000	0.000000	0.000000	0.000000	0.000000	0.000000	0.000000	0.000000	0.000000	0.000000	0.000000	0.000000	0.000000	0.000000	-2.103221	499.441266	-8.399324	0.202598	0.000000	-1.082110	-0.000000	4.443743	0.000000	-11.887729	483.468359	2.610246	0.219459	0.000000	-1.396109	-0.000000	-6.009408	-0.000000
5.727500	0.000000	0.000000	0.000000	0.000000	0.000000	0.000000	0.000000	0.000000	0.000000	0.000000	0.000000	0.000000	0.000000	0.000000	0.000000	0.000000	0.000000	0.000000	0.000000	0.000000	0.000000	0.000000	0.000000	0.000000	0.000000	0.000000	0.000000	-2.035757	499.370417	-8.396185	0.202607	0.000000	-1.082104	-0.000000	4.446110	0.000000	-11.886243	483.422265	2.620598	0.219496	0.000000	-1.396133	-0.000000	-6.012033	-0.000000
5.728000	0.000000	0.000000	0.000000	0.000000	0.000000	0.000000	0.000000	0.000000	0.000000	0.000000	0.000000	0.000000	0.000000	0.000000	0.000000	0.000000	0.000000	0.000000	0.000000	0.000000	0.000000	0.000000	0.000000	0.000000	0.000000	0.000000	0.000000	-1.968190	499.299252	-8.392786	0.202616	0.000000	-1.082097	-0.000000	4.448519	0.000000	-11.883506	483.375528	2.631311	0.219532	0.000000	-1.396157	-0.000000	-6.014659	-0.000000
5.728500	0.000000	0.000000	0.000000	0.000000	0.000000	0.000000	0.000000	0.000000	0.000000	0.000000	0.000000	0.000000	0.000000	0.000000	0.000000	0.000000	0.000000	0.000000	0.000000	0.000000	0.000000	0.000000	0.000000	0.000000	0.000000	0.000000	0.000000	-1.900521	499.227918	-8.389111	0.202625	0.000000	-1.082090	-0.000000	4.450974	0.000000	-11.879463	483.328107	2.642346	0.219568	0.000000	-1.396180	-0.000000	-6.017288	-0.000000
5.729000	0.000000	0.000000	0.000000	0.000000	0.000000	0.000000	0.000000	0.000000	0.000000	0.000000	0.000000	0.000000	0.000000	0.000000	0.000000	0.000000	0.000000	0.000000	0.000000	0.000000	0.000000	0.000000	0.000000	0.000000	0.000000	0.000000	0.000000	-1.832754	499.156568	-8.385145	0.202634	0.000000	-1.082083	-0.000000	4.453479	0.000000	-11.874072	483.279969	2.653664	0.219605	0.000000	-1.396204	-0.000000	-6.019925	-0.000000
5.729500	0.000000	0.000000	0.000000	0.000000	0.000000	0.000000	0.000000	0.000000	0.000000	0.000000	0.000000	0.000000	0.000000	0.000000	0.000000	0.000000	0.000000	0.000000	0.000000	0.000000	0.000000	0.000000	0.000000	0.000000	0.000000	0.000000	0.000000	-1.764902	499.085358	-8.380871	0.202643	0.000000	-1.082076	-0.000000	4.456036	0.000000	-11.867302	483.231084	2.665235	0.219641	0.000000	-1.396227	-0.000000	-6.022572	-0.000000
5.730000	0.000000	0.000000	0.000000	0.000000	0.000000	0.000000	0.000000	0.000000	0.000000	0.000000	0.000000	0.000000	0.000000	0.000000	0.000000	0.000000	0.000000	0.000000	0.000000	0.000000	0.000000	0.000000	0.000000	0.000000	0.000000	0.000000	0.000000	-1.696983	499.014448	-8.376270	0.202652	0.000000	-1.082069	-0.000000	4.458648	0.000000	-11.859133	483.181426	2.677029	0.219677	0.000000	-1.396251	-0.000000	-6.025230	-0.000000
5.730500	0.000000	0.000000	0.000000	0.000000	0.000000	0.000000	0.000000	0.000000	0.000000	0.000000	0.000000	0.000000	0.000000	0.000000	0.000000	0.000000	0.000000	0.000000	0.000000	0.000000	0.000000	0.000000	0.000000	0.000000	0.000000	0.000000	0.000000	-1.629022	498.943998	-8.371326	0.202661	0.000000	-1.082062	-0.000000	4.461315	0.000000	-11.849552	483.130962	2.689025	0.219714	0.000000	-1.396274	-0.000000	-6.027898	-0.000000
5.731000	0.000000	0.000000	0.000000	0.000000	0.000000	0.000000	0.000000	0.000000	0.000000	0.000000	0.000000	0.000000	0.000000	0.000000	0.000000	0.000000	0.000000	0.000000	0.000000	0.000000	0.000000	0.000000	0.000000	0.000000	0.000000	0.000000	0.000000	-1.561040	498.874165	-8.366021	0.202669	0.000000	-1.082055	-0.000000	4.464039	0.000000	-11.838553	483.079646	2.701202	0.219750	0.000000	-1.396298	-0.000000	-6.030576	-0.000000
